HIERARCHY
ROOT joint_Root
{
	OFFSET 0.0 0.0 0.0
	CHANNELS 6 Xposition Yposition Zposition Zrotation Xrotation Yrotation 
	JOINT Hips
	{
		OFFSET 4.5925 91.4895 -427.239
		CHANNELS 6 Xposition Yposition Zposition Zrotation Xrotation Yrotation 
		JOINT Spine
		{
			OFFSET 15.7357 0.0 0.0
			CHANNELS 6 Xposition Yposition Zposition Zrotation Xrotation Yrotation 
			JOINT Chest
			{
				OFFSET 8.98455 -0.406207 0.0
				CHANNELS 6 Xposition Yposition Zposition Zrotation Xrotation Yrotation 
				JOINT Neck
				{
					OFFSET 16.3773 0.0 0.0
					CHANNELS 6 Xposition Yposition Zposition Zrotation Xrotation Yrotation 
					JOINT Head
					{
						OFFSET 6.45672 0.0 0.0
						CHANNELS 6 Xposition Yposition Zposition Zrotation Xrotation Yrotation 
						End Site
						{
							OFFSET 0.0 0.0 0.0
						}
					}
				}
				JOINT Shoulder_L
				{
					OFFSET 12.9942 -0.242716 4.98039
					CHANNELS 6 Xposition Yposition Zposition Zrotation Xrotation Yrotation 
					JOINT UpperArm_L
					{
						OFFSET 5.34809 0.0 0.0
						CHANNELS 6 Xposition Yposition Zposition Zrotation Xrotation Yrotation 
						JOINT LowerArm_L
						{
							OFFSET 24.3286 1.87007e-05 0.0
							CHANNELS 6 Xposition Yposition Zposition Zrotation Xrotation Yrotation 
							JOINT Hand_L
							{
								OFFSET 22.2916 0.0 0.0
								CHANNELS 6 Xposition Yposition Zposition Zrotation Xrotation Yrotation 
								End Site
								{
									OFFSET 0.0 0.0 0.0
								}
							}
						}
					}
				}
				JOINT Shoulder_R
				{
					OFFSET 12.9945 -0.242716 -4.98039
					CHANNELS 6 Xposition Yposition Zposition Zrotation Xrotation Yrotation 
					JOINT UpperArm_R
					{
						OFFSET -5.34813 0.0 0.0
						CHANNELS 6 Xposition Yposition Zposition Zrotation Xrotation Yrotation 
						JOINT LowerArm_R
						{
							OFFSET -24.3289 0.000322201 0.0
							CHANNELS 6 Xposition Yposition Zposition Zrotation Xrotation Yrotation 
							JOINT Hand_R
							{
								OFFSET -22.2915 -0.000108084 0.0
								CHANNELS 6 Xposition Yposition Zposition Zrotation Xrotation Yrotation 
								End Site
								{
									OFFSET 0.0 0.0 0.0
								}
							}
						}
					}
				}
			}
		}
		JOINT UpperLeg_L
		{
			OFFSET -2.19248 -6.46944 0.0
			CHANNELS 6 Xposition Yposition Zposition Zrotation Xrotation Yrotation 
			JOINT LowerLeg_L
			{
				OFFSET 39.0811 0.0 -1.23785e-05
				CHANNELS 6 Xposition Yposition Zposition Zrotation Xrotation Yrotation 
				JOINT Foot_L
				{
					OFFSET 40.9854 0.0 -1.26872e-05
					CHANNELS 6 Xposition Yposition Zposition Zrotation Xrotation Yrotation 
					JOINT Toes_L
					{
						OFFSET 11.7543 0.0 0.0
						CHANNELS 6 Xposition Yposition Zposition Zrotation Xrotation Yrotation 
						End Site
						{
							OFFSET 0.0 0.0 0.0
						}
					}
				}
			}
		}
		JOINT UpperLeg_R
		{
			OFFSET -2.19251 6.46944 0.0
			CHANNELS 6 Xposition Yposition Zposition Zrotation Xrotation Yrotation 
			JOINT LowerLeg_R
			{
				OFFSET -39.0811 -0.00228153 -0.0401928
				CHANNELS 6 Xposition Yposition Zposition Zrotation Xrotation Yrotation 
				JOINT Foot_R
				{
					OFFSET -40.9854 0.0 0.0
					CHANNELS 6 Xposition Yposition Zposition Zrotation Xrotation Yrotation 
					JOINT Toes_R
					{
						OFFSET -11.7543 0.0 0.0
						CHANNELS 6 Xposition Yposition Zposition Zrotation Xrotation Yrotation 
						End Site
						{
							OFFSET 0.0 0.0 0.0
						}
					}
				}
			}
		}
	}
}
MOTION
Frames:	6
Frame Time:	0.0333333
0.000000 0.000000 0.000000 0.000000 0.000000 -0.000000 5.848920 90.646700 1.961930 91.394900 -7.300170 10.460500 15.735700 0.000005 -0.000001 86.687200 82.837300 -87.974700 8.984550 -0.406207 -0.000000 6.528120 -0.811409 -2.526000 16.377300 -0.000001 -0.000001 10.957400 -0.574510 -2.829480 6.456720 -0.000001 -0.000000 2.026860 0.313440 -1.514160 12.994200 -0.242716 4.980390 -92.069800 7.246660 -74.012700 5.348090 -0.000007 -0.000001 -60.061000 34.416200 -14.649100 24.328600 0.000019 0.000005 11.792700 29.220400 -23.154900 22.291600 -0.000001 0.000005 7.038170 5.310210 -0.217094 12.994500 -0.242716 -4.980390 88.350100 11.388600 -81.700500 -5.348130 -0.000001 -0.000004 -61.293300 37.350800 -11.848000 -24.328900 0.000322 -0.000009 3.073390 9.523350 -17.985200 -22.291500 -0.000108 -0.000004 12.113800 5.419630 -3.586230 -2.192480 -6.469440 -0.000000 179.572000 -17.794900 4.057850 39.081100 -0.000007 -0.000012 -0.059411 0.113348 27.661600 40.985400 -0.000006 -0.000013 4.820150 3.764850 -72.123300 11.754300 -0.000000 0.000003 -0.000191 -0.001780 -16.644800 -2.192510 6.469440 -0.000001 166.873000 17.571300 -177.068000 -39.081100 -0.002282 -0.040193 -0.144716 0.265326 29.156400 -40.985400 0.000008 0.000006 0.496699 16.190900 -70.624600 -11.754300 -0.000006 -0.000006 -0.002022 -0.028996 -17.752100
0.000000 0.000000 0.000000 0.000000 0.000000 -0.000000 5.892290 90.638000 1.910770 91.434900 -7.274310 10.476600 15.735700 0.000005 -0.000001 86.506600 82.895400 -87.826300 8.984550 -0.406207 -0.000000 6.408800 -0.847637 -2.589110 16.377300 -0.000001 -0.000001 11.431000 -0.702072 -2.815920 6.456720 -0.000001 -0.000000 2.646410 0.224453 -1.549080 12.994200 -0.242716 4.980390 -92.083300 7.273750 -73.970300 5.348090 -0.000007 -0.000001 -57.879800 34.036500 -16.057100 24.328600 0.000019 0.000005 13.401900 30.965900 -24.847600 22.291600 -0.000001 0.000005 5.907470 5.334410 -0.915650 12.994500 -0.242716 -4.980390 88.337600 11.240500 -81.531400 -5.348130 -0.000001 -0.000004 -60.042700 36.690600 -12.875600 -24.328900 0.000322 -0.000009 3.519460 10.755800 -18.245000 -22.291500 -0.000108 -0.000004 11.660400 5.426720 -3.826860 -2.192480 -6.469440 -0.000000 179.522000 -17.871000 4.016870 39.081100 -0.000007 -0.000012 -0.055572 0.105827 27.705200 40.985400 -0.000006 -0.000013 4.882050 3.857590 -72.124700 11.754300 -0.000000 0.000003 -0.000194 -0.001801 -16.645600 -2.192510 6.469440 -0.000001 166.828000 17.484700 -177.129000 -39.081100 -0.002282 -0.040193 -0.150915 0.275791 29.213600 -40.985400 0.000008 0.000006 0.363041 16.140100 -70.583200 -11.754300 -0.000006 -0.000006 -0.002129 -0.030321 -17.806000
0.000000 0.000000 0.000000 0.000000 0.000000 -0.000000 5.921420 90.633700 1.858150 91.423700 -7.267610 10.577000 15.735700 0.000005 -0.000001 86.609700 82.923900 -87.944500 8.984550 -0.406207 -0.000000 6.353820 -0.818055 -2.621210 16.377300 -0.000001 -0.000001 12.081100 -0.842086 -2.809080 6.456720 -0.000001 -0.000000 3.209570 0.010503 -1.549110 12.994200 -0.242716 4.980390 -92.070500 7.219350 -73.950500 5.348090 -0.000007 -0.000001 -55.196300 32.683900 -18.156700 24.328600 0.000019 0.000005 14.701700 31.439000 -26.703700 22.291600 -0.000001 0.000005 5.293010 5.349320 -1.356800 12.994500 -0.242716 -4.980390 88.338100 10.970000 -81.330800 -5.348130 -0.000001 -0.000004 -58.354500 35.449800 -14.367100 -24.328900 0.000322 -0.000009 3.675200 10.715500 -19.063200 -22.291500 -0.000108 -0.000004 11.818500 5.431590 -3.993820 -2.192480 -6.469440 -0.000000 179.558000 -17.945100 4.054420 39.081100 -0.000007 -0.000012 -0.054100 0.102755 27.766700 40.985400 -0.000006 -0.000013 4.924850 3.915030 -72.123900 11.754300 -0.000000 0.000003 -0.000205 -0.001892 -16.648900 -2.192510 6.469440 -0.000001 166.804000 17.471000 -177.084000 -39.081100 -0.002282 -0.040193 -0.148125 0.270260 29.262400 -40.985400 0.000008 0.000006 0.455490 16.139500 -70.599900 -11.754300 -0.000006 -0.000006 -0.001987 -0.028560 -17.734400
0.000000 0.000000 0.000000 0.000000 0.000000 -0.000000 5.960580 90.629200 1.742570 91.461300 -7.264450 10.717400 15.735700 0.000005 -0.000001 86.675600 82.955800 -88.048800 8.984550 -0.406207 -0.000000 6.290980 -0.796963 -2.699450 16.377300 -0.000001 -0.000001 12.983900 -0.990440 -2.780890 6.456720 -0.000001 -0.000000 3.907810 -0.139392 -1.572600 12.994200 -0.242716 4.980390 -92.024700 7.038740 -73.907300 5.348090 -0.000007 -0.000001 -52.589700 29.719900 -20.622300 24.328600 0.000019 0.000005 15.450200 30.550600 -28.535300 22.291600 -0.000001 0.000005 5.062490 5.350950 -1.405720 12.994500 -0.242716 -4.980390 88.348600 10.723200 -81.192100 -5.348130 -0.000001 -0.000004 -56.137300 33.262700 -16.338000 -24.328900 0.000322 -0.000009 3.792420 10.205800 -20.516900 -22.291500 -0.000108 -0.000004 11.877300 5.433560 -4.061630 -2.192480 -6.469440 -0.000000 179.546000 -18.051200 4.090770 39.081100 -0.000007 -0.000012 -0.050708 0.096071 27.826300 40.985400 -0.000006 -0.000013 4.986380 3.989360 -72.089800 11.754300 -0.000000 0.000003 -0.000180 -0.001691 -16.641500 -2.192510 6.469440 -0.000001 166.720000 17.478000 -177.086000 -39.081100 -0.002282 -0.040193 -0.152063 0.276376 29.343000 -40.985400 0.000008 0.000006 0.269078 16.166500 -70.478800 -11.754300 -0.000006 -0.000006 -0.002031 -0.029099 -17.756300
0.000000 0.000000 0.000000 0.000000 0.000000 -0.000000 5.981870 90.630100 1.600740 91.490200 -7.232120 10.957500 15.735700 0.000005 -0.000001 86.598700 82.984000 -88.012300 8.984550 -0.406207 -0.000000 6.233360 -0.811254 -2.779850 16.377300 -0.000001 -0.000001 14.140900 -1.092500 -2.784100 6.456720 -0.000001 -0.000000 4.864210 -0.294658 -1.568880 12.994200 -0.242716 4.980390 -91.948600 6.758650 -73.876200 5.348090 -0.000007 -0.000001 -50.404600 25.268300 -23.091400 24.328600 0.000019 0.000005 16.052500 28.724200 -30.910000 22.291600 -0.000001 0.000005 5.278160 5.352410 -1.449730 12.994500 -0.242716 -4.980390 88.351600 10.515900 -81.039300 -5.348130 -0.000001 -0.000004 -53.570500 30.175300 -18.700400 -24.328900 0.000322 -0.000009 3.905820 9.411050 -22.669000 -22.291500 -0.000108 -0.000004 12.317200 5.428300 -3.880790 -2.192480 -6.469440 -0.000000 179.572000 -18.065900 4.187420 39.081100 -0.000007 -0.000012 -0.050563 0.095483 27.903300 40.985400 -0.000006 -0.000013 5.022940 4.037650 -72.022900 11.754300 -0.000000 0.000003 -0.000203 -0.001873 -16.648200 -2.192510 6.469440 -0.000001 166.645000 17.449500 -176.981000 -39.081100 -0.002282 -0.040193 -0.149571 0.270731 29.452200 -40.985400 0.000008 0.000006 0.485139 16.150600 -70.515000 -11.754300 -0.000006 -0.000006 -0.002026 -0.029035 -17.753800
0.000000 0.000000 0.000000 0.000000 0.000000 -0.000000 6.022800 90.617500 1.482980 91.497200 -7.309530 11.249200 15.735700 0.000005 -0.000001 86.669200 83.013300 -88.109700 8.984550 -0.406207 -0.000000 6.175890 -0.789632 -2.835100 16.377300 -0.000001 -0.000001 15.476900 -1.173080 -2.826390 6.456720 -0.000001 -0.000000 6.106100 -0.453883 -1.605290 12.994200 -0.242716 4.980390 -91.826800 6.325920 -73.856300 5.348090 -0.000007 -0.000001 -48.419000 20.318100 -25.983200 24.328600 0.000019 0.000005 16.372700 26.518100 -33.346600 22.291600 -0.000001 0.000005 5.749280 5.351010 -1.407620 12.994500 -0.242716 -4.980390 88.391800 10.102200 -80.906400 -5.348130 -0.000001 -0.000004 -50.987900 26.718100 -21.531700 -24.328900 0.000322 -0.000009 3.789170 8.195690 -24.926600 -22.291500 -0.000108 -0.000004 13.321900 5.440290 -4.295060 -2.192480 -6.469440 -0.000000 179.649000 -18.234000 4.374060 39.081100 -0.000007 -0.000012 -0.044391 0.083460 28.008200 40.985400 -0.000006 -0.000013 5.088170 4.106620 -72.023100 11.754300 -0.000000 0.000003 -0.000180 -0.001696 -16.641700 -2.192510 6.469440 -0.000001 166.542000 17.440000 -176.853000 -39.081100 -0.002282 -0.040193 -0.151257 0.272406 29.570200 -40.985400 0.000008 0.000006 0.408822 16.248000 -70.437100 -11.754300 -0.000006 -0.000006 -0.002147 -0.030543 -17.815100
